Spanje / Verenigd Koninkrijk
Animatie / Science-Fiction
91 minuten

geregisseerd door Jorge Blanco, Javier Abad en Marcos Martínez
met de stemmen van Dwayne Johnson, Jessica Biel en Justin Long

Op een planeet in de ruimte krijgt een familie de schrik van hun leven. Juist bij hen landt een vreemd ruimtevoertuig, met het opschrift "NASA", en blijkt de bestuurder één van die gevreesde wezens te zijn; een mens.
 
http://www.imdb.com/title/tt0762125/
 
http://www.moviemeter.nl/film/45151

Nederlands gesproken.

Hoesjes bijgevoegd.

General
Complete name                    : Planet 51-AC3-XviD-DVDRip[Ned]2009 2Lions-TeamPlanet 51-AC3-XviD-DVDRip[Ned]2009 2Lions-Team.avi
Format                           : AVI
Format/Info                      : Audio Video Interleave
File size                        : 1.36 GiB
Duration                         : 1h 26mn
Overall bit rate                 : 2 244 Kbps
Writing application              : VirtualDubMod 1.5.4.1 (build 2178/release)
Writing library                  : VirtualDubMod build 2178/release

Video
ID                               : 0
Format                           : MPEG-4 Visual
Format profile                   : Simple@L3
Format settings, BVOP            : No
Format settings, QPel            : No
Format settings, GMC             : No warppoints
Format settings, Matrix          : Default (H.263)
Codec ID                         : XVID
Codec ID/Hint                    : XviD
Duration                         : 1h 26mn
Bit rate                         : 1 786 Kbps
Width                            : 720 pixels
Height                           : 304 pixels
Display aspect ratio             : 2.35:1
Frame rate                       : 25.000 fps
Resolution                       : 8 bits
Colorimetry                      : 4:2:0
Scan type                        : Progressive
Bits/(Pixel*Frame)               : 0.326
Stream size                      : 1.08 GiB (80%)
Writing library                  : XviD 1.1.2 (UTC 2006-11-01)

Audio
ID                               : 1
Format                           : AC-3
Format/Info                      : Audio Coding 3
Format_Settings_ModeExtension    : CM (complete main)
Codec ID                         : 2000
Duration                         : 1h 26mn
Bit rate mode                    : Constant
Bit rate                         : 448 Kbps
Channel(s)                       : 6 channels
Channel positions                : Front: L C R, Side: L R, LFE
Sampling rate                    : 48.0 KHz
Stream size                      : 278 MiB (20%)
Alignment                        : Split accross interleaves
Interleave, duration             : 40 ms (1.00 video frame)
Interleave, preload duration     : 500 ms

Thanks to D3LUX3 for the source.

Brought to you by 
2Lions Team

meer zien??
                   
Kom dan eens kijken op ons NIEUWE forum 
            
http://www.2lions-site.nl

2Lions the site to be for all your Dutch MOVIES and more

******************************************

DON T HIT AND RUN Niet gelijk afhaken als de FILM binnen is blijf seeden. 

Don`t quit after you finished the download, but keep seeding

There are fake torrents from uploaders who use our team name.
Those are not ours, or members from our team.
We 2Lions-Team are not responsible for the fake posts on our name

Wij 2Lions-Team zijn niet verantwoordelijk voor die zieke FAKE posten die op onze naam worden gedaan

Please check our site !!!

to the fakers , get a life !!!